<?xml version="1.0" standalone="no"?>
<!DOCTYPE svg PUBLIC "-//W3C//DTD SVG 20010904//EN"
 "http://www.w3.org/TR/2001/REC-SVG-20010904/DTD/svg10.dtd">
<svg version="1.0" xmlns="http://www.w3.org/2000/svg"
 width="512.000000pt" height="512.000000pt" viewBox="0 0 512.000000 512.000000"
 preserveAspectRatio="xMidYMid meet">

<g transform="translate(0.000000,512.000000) scale(0.100000,-0.100000)"
fill="#000000" stroke="none">
<path d="M850 2316 c0 -10 9 -16 21 -16 24 0 21 23 -4 28 -10 2 -17 -3 -17
-12z"/>
<path d="M1520 2030 c0 -5 5 -10 11 -10 5 0 7 5 4 10 -3 6 -8 10 -11 10 -2 0
-4 -4 -4 -10z"/>
<path d="M2106 1944 c-10 -25 -7 -30 19 -42 43 -20 51 -15 47 23 -4 31 -8 35
-32 35 -16 0 -30 -7 -34 -16z"/>
<path d="M1993 1859 c-3 -10 -10 -19 -16 -19 -6 0 -7 -3 -4 -6 4 -4 18 1 32
10 14 9 31 13 38 9 10 -7 77 -12 77 -6 0 9 -52 27 -84 29 -30 2 -39 -2 -43
-17z"/>
<path d="M1130 1770 c0 -5 5 -10 10 -10 6 0 10 5 10 10 0 6 -4 10 -10 10 -5 0
-10 -4 -10 -10z"/>
<path d="M1295 1510 c-10 -11 -24 -20 -32 -20 -11 0 -19 -35 -14 -64 4 -20
-12 -47 -25 -42 -9 3 -14 -1 -14 -13 0 -10 -9 -30 -20 -44 -11 -14 -23 -40
-27 -58 -3 -18 -13 -34 -24 -36 -21 -6 -30 -24 -24 -53 2 -11 0 -20 -4 -20 -4
0 -15 -22 -25 -49 -10 -28 -24 -55 -32 -62 -8 -7 -13 -18 -10 -25 3 -7 1 -16
-4 -19 -6 -4 -10 -15 -10 -26 0 -13 -7 -19 -21 -19 -14 0 -19 -5 -16 -14 3 -8
0 -22 -8 -32 -7 -10 -10 -25 -7 -32 3 -8 -2 -19 -12 -24 -9 -5 -14 -14 -10
-19 3 -5 0 -17 -8 -26 -7 -9 -14 -33 -14 -54 -1 -21 -4 -59 -8 -86 -5 -40 -1
-33 27 47 42 122 51 144 115 270 29 58 63 112 74 120 12 8 48 22 82 31 89 24
307 98 337 115 15 7 103 26 195 41 145 24 163 29 129 35 -22 4 -63 7 -90 7
-60 1 -99 23 -90 52 10 30 -1 22 -24 -17 -21 -35 -76 -67 -146 -85 -16 -4 -88
-28 -160 -53 -71 -25 -138 -46 -147 -46 -26 0 -23 48 4 77 17 18 19 26 10 35
-7 7 -12 18 -12 25 0 23 43 107 72 141 15 18 28 37 28 42 0 19 -18 19 -35 0z"/>
<path d="M2773 1333 c8 -13 67 -23 67 -11 0 4 -9 8 -19 8 -11 0 -27 3 -37 7
-11 4 -15 3 -11 -4z"/>
<path d="M2865 1310 c3 -5 10 -10 16 -10 5 0 9 5 9 10 0 6 -7 10 -16 10 -8 0
-12 -4 -9 -10z"/>
<path d="M3348 1273 c6 -2 18 -2 25 0 6 3 1 5 -13 5 -14 0 -19 -2 -12 -5z"/>
<path d="M3427 1274 c-4 -4 11 -15 32 -26 22 -11 52 -38 67 -61 35 -52 73 -86
97 -87 30 0 14 23 -31 45 -23 11 -42 24 -42 29 0 5 6 3 14 -3 10 -8 16 -9 21
-1 6 9 2 12 -27 14 -21 2 -27 18 -16 39 8 16 12 17 19 6 5 -8 9 -9 9 -4 0 6
-4 17 -9 24 -8 12 -13 11 -31 -10 l-21 -24 7 24 c5 20 3 23 -11 17 -13 -4 -16
-2 -11 9 4 11 -2 15 -28 15 -18 0 -36 -3 -39 -6z"/>
<path d="M3797 1173 c-12 -12 -7 -63 6 -63 30 1 41 18 29 44 -12 26 -23 32
-35 19z"/>
<path d="M3710 1070 c19 -13 30 -13 30 0 0 6 -10 10 -22 10 -19 0 -20 -2 -8
-10z"/>
<path d="M3833 1066 c0 -20 34 -27 48 -10 6 8 10 14 8 15 -41 9 -56 8 -56 -5z"/>
</g>
</svg>
